<?xml version="1.0" encoding="UTF-8"?>
<svg width="2148" height="616" viewBox="0 0 2148 616" xmlns="http://www.w3.org/2000/svg" focusable="false" role="presentation">
    <g transform="translate(3 16)" fill="#505F79">
        <path d="M158.436811-1.1 22.1233379 269.1-2.43681098 269.1 133.876662-1.1 158.436811-1.1ZM256.707409-1.49959613C258.567998-1.49536752 261.298831-1.44673572 264.9-.907933686L264.9-.907933686 264.9 18.5428111C252.435295 19.8797309 244.676962 21.9369147 240.040064 26.9304969 235.582152 31.7313256 234.083798 39.1723393 233.7 50.8246399L233.7 50.8246399 233.7 81.7 264.9 81.7 264.9 103.5 233.7 103.5 233.7 268.7 210.7 268.7 210.7 103.5 183.1 103.5 183.1 81.7 210.7 81.7 210.7 50.8C210.7 33.5201828 214.473099 21.6296812 222.69009 12.5909908 230.981992 3.88390805 243.38162-1.5 256.20119-1.49999953L256.20119-1.49999953ZM373.2 78.5C401.260236 78.5 426.470298 90.2986418 443.963343 111.453093 458.174437 128.912437 464.7 148.800223 464.7 175.2 464.7 202.394829 454.548772 226.541134 437.918641 243.900656 421.242024 261.308704 398.04711 271.9 372 271.9 344.755624 271.9 318.328681 259.694833 301.252633 239.366204 288.259392 223.93673 280.9 200.4 280.9 174.4 280.9 143.90959 289.892924 120.76811 308.178022 103.701886 325.248579 87.4508003 348.814651 78.5 373.2 78.5ZM373.2 100.3C352.676456 100.3 335.556146 107.79742 323.57457 120.94292 311.53722 134.149613 304.7 153.019614 304.7 175.6 304.7 197.800084 311.54886 216.480112 323.551731 229.586695 335.481508 242.613463 352.490154 250.1 372.8 250.1 392.554159 250.1 409.575624 242.284171 421.652177 229.027725 433.768115 215.728046 440.9 196.976399 440.9 175.2 440.9 150.889621 434.28963 132.818305 420.554821 119.475919 408.424117 107.736531 390.420762 100.3 373.2 100.3ZM594.1 78.5 594.1 101.1 585.8 101.1C569.249839 101.1 555.237087 108.418608 545.618735 120.804831 535.945281 133.262013 530.714114 150.805969 531.7 171.163832L531.7 171.163832 531.7 268.7 508.7 268.7 508.7 81.7 531.7 81.7 531.7 109.785341C536.398304 100.52853 540.281115 95.9798416 546.439723 90.8476681 556.309218 83.0337158 570.654176 78.5 584.6 78.5L584.6 78.5 594.1 78.5ZM692 78.5C719.705207 78.5 739.074272 88.6353383 758.31692 113.85041L758.9 114.619124 758.9 81.7 781.9 81.7 781.9 276C781.9 303.08682 773.497099 324.743238 758.174916 339.645635 742.88088 354.520657 720.650088 362.7 692.8 362.7 658.857615 362.7 632.365372 351.528843 614.906159 329.736995L614.379859 329.073385 631.665121 312.242999C640.638315 322.132424 644.666346 325.848789 649.986146 329.122513 659.828094 335.421081 677.902956 340.1 694 340.1 714.355893 340.1 733.960265 332.710486 745.321849 320.956501 754.579762 310.910992 758.797869 297.023431 758.898166 276.744759L758.9 276 758.9 232.033387C750.850301 244.703967 745.757393 250.574029 737.717171 256.786928 725.052841 266.183401 707.520313 271.9 690.8 271.9 666.523906 271.9 645.10485 261.486633 629.76867 244.178659 614.532672 226.983747 605.3 202.967914 605.3 175.6 605.3 145.958119 616.306121 117.156183 634.975919 99.7027874 649.237222 85.4622611 668.367086 78.5 692 78.5ZM694.8 100.3C675.479237 100.3 659.075111 107.892026 647.501099 120.912789 635.849835 134.020461 629.1 152.597497 629.1 174.4 629.1 196.206661 635.95131 215.178347 647.499754 228.686527 658.965571 242.098058 675.062335 250.1 693.6 250.1 711.978153 250.1 730.338268 241.085225 743.635236 225.853391 752.279229 215.246299 758.1 194.40804 758.1 174 758.1 148.915616 754.645745 136.326855 744.064285 123.380698 731.943 109.303543 713.179104 100.3 694.8 100.3ZM915.8 78.5C941.796953 78.5 964.745545 88.5510967 981.209333 105.087734 997.707054 121.658454 1007.7 144.749271 1007.7 170.8 1007.7 172.721276 1007.44904 176.162935 1007.14277 180.322866 1007.05385 181.530609 1006.96042 182.799666 1006.8675 184.109909L1006.79799 185.1 848.649714 185.1C850.268523 201.312619 853.436098 210.130251 861.037075 221.151518 873.945718 239.528124 893.494872 250.1 915.4 250.1 927.685425 250.1 939.775004 246.599515 950.317126 240.478283 961.158935 234.18304 970.367011 225.114448 976.462215 214.212323L976.810397 213.581327 995.773227 223.756504C988.919554 238.39371 977.246233 250.588514 962.911978 259.042049 949.037576 267.224388 932.672896 271.9 915.8 271.9 888.946169 271.9 865.970216 261.910228 849.702778 244.922992 833.466817 227.968626 823.9 204.021923 823.9 176 823.9 147.565518 833.475371 123.20982 849.72313 105.955563 865.9911 88.6798423 888.959389 78.5 915.8 78.5ZM915.4 100.3C892.346159 100.3 871.227238 111.609421 859.871997 130.794998 854.1822 139.898675 851.444949 147.911134 849.495432 163.3L849.495432 163.3 982.575658 163.3 982.511251 162.560155C981.240349 148.359242 978.466845 140.074629 972.160089 130.046003 959.633734 111.646085 938.493485 100.3 915.4 100.3ZM1120.1 159.7 1120.1 181.5 1037.1 181.5 1037.1 159.7 1120.1 159.7ZM1321.7-1.1 1321.7 268.7 1298.7 268.7 1298.7 236.07725C1279.22846 261.191461 1259.42338 271.9 1232.6 271.9 1207.34411 271.9 1185.76142 261.909214 1170.48719 244.905826 1155.26386 227.959097 1146.3 204.01844 1146.3 176 1146.3 147.949055 1155.28561 123.577792 1170.39505 106.227234 1185.52078 88.8579806 1206.78472 78.5 1231.4 78.5 1244.82603 78.5 1259.06547 81.7556826 1271.27082 87.8583592 1282.26053 93.353212 1288.97095 98.5077803 1298.21934 109.877715L1298.7 110.471391 1298.7-1.1 1321.7-1.1ZM1235.4 100.3C1215.88295 100.3 1199.57401 107.892271 1188.14949 121.163868 1176.64547 134.527824 1170.1 153.607464 1170.1 176.4 1170.1 198.186978 1176.54138 216.656847 1187.68407 229.668193 1198.75599 242.596894 1214.46636 250.1 1233 250.1 1252.12885 250.1 1268.62711 242.204574 1280.34673 228.889976 1292.14706 215.483689 1299.1 196.608963 1299.1 174.8 1299.1 152.404787 1292.75271 133.721593 1281.54407 120.656307 1270.41936 107.688851 1254.51174 100.3 1235.4 100.3ZM1458 78.5C1483.99695 78.5 1506.94554 88.5510967 1523.40933 105.087734 1539.90705 121.658454 1549.9 144.749271 1549.9 170.8 1549.9 172.721276 1549.64904 176.162935 1549.34277 180.322866 1549.25385 181.530609 1549.16042 182.799666 1549.0675 184.109909L1548.99799 185.1 1390.84971 185.1C1392.46852 201.312619 1395.6361 210.130251 1403.23708 221.151518 1416.14572 239.528124 1435.69487 250.1 1457.6 250.1 1469.88543 250.1 1481.975 246.599515 1492.51713 240.478283 1503.35893 234.18304 1512.56701 225.114448 1518.66221 214.212323L1519.0104 213.581327 1537.97323 223.756504C1531.11955 238.39371 1519.44623 250.588514 1505.11198 259.042049 1491.23758 267.224388 1474.8729 271.9 1458 271.9 1431.14617 271.9 1408.17022 261.910228 1391.90278 244.922992 1375.66682 227.968626 1366.1 204.021923 1366.1 176 1366.1 147.565518 1375.67537 123.20982 1391.92313 105.955563 1408.1911 88.6798423 1431.15939 78.5 1458 78.5ZM1457.6 100.3C1434.54616 100.3 1413.42724 111.609421 1402.072 130.794998 1396.3822 139.898675 1393.64495 147.911134 1391.69543 163.3L1391.69543 163.3 1524.77566 163.3 1524.71125 162.560155C1523.44035 148.359242 1520.66685 140.074629 1514.36009 130.046003 1501.83373 111.646085 1480.69349 100.3 1457.6 100.3ZM1581.24199 81.7 1638.61896 235.753251 1697.56791 81.7 1721.17553 81.7 1650.03423 268.7 1626.35519 268.7 1557.2465 81.7 1581.24199 81.7ZM1811.9 159.7 1811.9 181.5 1728.9 181.5 1728.9 159.7 1811.9 159.7ZM1862.1-1.1 1862.1 165.554613 1945.17457 81.7 1976.6439 81.7 1883.51676 174.013805 1976.57744 268.7 1944.77661 268.7 1862.1 185.633405 1862.1 268.7 1839.1 268.7 1839.1-1.1 1862.1-1.1ZM2027.9 81.7 2027.9 268.7 2004.9 268.7 2004.9 81.7 2027.9 81.7ZM2016.8 14.899 2017.21918 14.9051441C2021.67379 15.0146871 2025.59187 16.867409 2028.42602 19.8547574 2031.33016 22.9158758 2033.1 27.1795047 2033.1 32 2033.1 36.4054054 2031.23602 40.4852965 2028.26066 43.4606602 2025.2853 46.4360239 2021.20541 48.3 2016.8 48.3 2012.18553 48.3 2008.01067 46.4319918 2004.98934 43.4106602 2001.96801 40.3893285 2000.1 36.2144737 2000.1 31.6 2000.1 26.9855263 2001.96801 22.8106715 2004.98934 19.7893398 2008.01067 16.7680082 2012.18553 14.9 2016.8 14.9L2016.8 14.899ZM2113.3 19.7 2113.3 81.7 2143.3 81.7 2143.3 103.5 2113.3 103.5 2113.3 238.367297C2113.47106 242.274966 2113.78998 244.730993 2115.44401 246.084286 2117.17157 247.497746 2120.14249 247.7 2125 247.7L2125 247.7 2143.3 247.7 2143.3 268.7 2120.2 268.7C2109.56055 268.7 2102.30133 266.728935 2097.5909 262.549254 2092.77102 258.272456 2090.51134 251.637279 2090.3 242.016568L2090.3 242.016568 2090.3 103.5 2062.3 103.5 2062.3 81.7 2090.3 81.7 2090.3 19.7 2113.3 19.7Z" transform="translate(0 199.8)" stroke="#505F79" stroke-linejoin="bevel" stroke-width="3"/>
        <g transform="translate(16)">
            <g transform="translate(194)">
                <path d="M665.06893 88.0281197C663.863262 89.0453748 662.658843 90.0613818 661.238279 91.2596209 640.009775 91.2596209 618.590114 91.2596209 596.790636 91.2596209 598.668479 99.639806 603.416188 105.395098 610.923814 108.516761 622.187128 113.198631 631.967407 109.907218 640.492042 101.928942 646.375453 101.928942 652.151415 101.928942 657.723725 101.928942 659.170527 102.863818 659.414159 104.215582 659.982635 105.715877 651.579191 120.86861 638.504252 128.5985 621.277567 129.113993 601.378421 129.710616 584.464086 117.932924 578.378273 99.7633744 571.730232 79.9162903 578.067173 57.6614944 593.77834 46.3306455 618.462675 28.5268088 658.680763 39.6517104 664.338032 75.2693691 664.501703 76.2966095 664.821549 77.2988867 665.06768 78.3136454 665.06893 81.5513875 665.06893 84.7903777 665.06893 88.0281197ZM643.814189 74.9273717C642.120007 64.0421179 632.305993 56.3197162 620.295541 56.2921793 608.34256 56.2647969 599.349401 63.5603259 597.44532 74.9273717 612.907856 74.9273717 628.349153 74.9273717 643.814189 74.9273717ZM548.044164 124.709216C547.089625 125.550479 546.086359 126.435429 544.954406 127.433962 540.638989 127.433962 536.213625 127.433962 531.101092 127.433962 530.528869 126.676325 529.638049 125.494312 528.463615 123.937849 528.463615 97.2645465 528.463615 70.073255 528.463615 42.3914343 529.274474 41.5926082 530.320219 40.5603751 531.222284 39.6716811 535.898777 39.6716811 540.2017 39.6716811 544.761999 39.6716811 546.473672 40.8487014 548.220329 42.2291727 548.220329 45.4694111 555.109504 39.6641921 562.769557 37.5622809 571.586551 38.05281 572.306204 38.9202853 573.160791 39.9475257 574.256512 41.2680851 574.256512 45.4294698 574.256512 49.9952602 574.256512 54.8368953 573.330709 55.6769109 572.242485 56.66421 571.251713 57.5641375 559.136311 57.1672208 551.355066 62.0650233 548.725086 73.9550505 548.006683 77.2002816 548.089143 80.6552045 548.072901 84.0152667 548.004184 97.3544144 548.044164 110.69481 548.044164 124.709216ZM487.249758 48.1230116C487.249758 45.7702191 487.249758 44.3098651 487.249758 42.4750614 488.254273 41.5701412 489.346246 40.5865866 490.409483 39.6279953 494.822353 39.6279953 499.13777 39.6279953 503.480674 39.6279953 504.917481 40.424325 505.97447 41.6250605 506.92901 42.9605979 506.92901 70.0620215 506.92901 97.1634451 506.92901 124.715456 506.030693 125.521772 504.933723 126.505326 503.847997 127.478896 499.433877 127.478896 495.127206 127.478896 490.480699 127.478896 489.611118 126.680069 488.540385 125.697763 487.440916 124.686749 487.337216 122.483736 487.237264 120.37184 487.136063 118.232483 486.677534 118.299884 486.340197 118.244965 486.195267 118.386008 474.617106 129.689397 460.89373 131.745126 446.172085 126.647617 431.083118 121.422795 422.717156 109.879758 419.763582 94.5522823 417.007412 80.2483024 418.962719 66.5696536 427.74473 54.5148685 441.188241 36.0594893 466.945808 32.5246838 485.080805 46.4641992 485.58931 46.8561233 486.099064 47.2443028 487.249758 48.1230116ZM439.000547 83.9566029C438.846871 88.4774594 439.705207 92.8023538 441.503089 96.9425197 448.550937 113.172419 468.266421 116.34276 479.937038 103.023583 486.808721 95.1801096 488.739039 85.9249604 486.757496 75.8248029 484.626025 64.9595198 476.271307 57.319497 465.770126 56.4395401 453.338626 55.3985699 445.779775 60.1191329 441.265704 71.7258265 439.733943 75.6637895 438.883104 79.7228246 439.000547 83.9566029ZM333.535202 127.453932C327.752993 127.453932 322.239404 127.453932 316.317263 127.453932 306.73064 99.6148427 297.120279 71.7083521 287.482431 43.7194827 288.461958 42.3327705 289.384013 41.0246928 290.32106 39.6978925 295.627249 39.6978925 300.858474 39.6978925 306.393303 39.6978925 312.514098 57.1484983 318.634894 74.5966078 325.115516 93.0719576 330.947701 74.5604109 336.445048 57.1073088 341.941145 39.6629439 347.870783 39.6629439 353.529302 39.6629439 359.730059 39.6629439 365.149943 57.1734616 370.612306 74.8225258 376.273324 93.1156434 382.823912 74.8824377 389.135865 57.312008 395.464061 39.6966444 400.868952 39.6966444 406.101426 39.6966444 411.511315 39.6966444 412.403385 40.9597881 413.32419 42.2616251 414.354943 43.7207308 404.398498 71.5947691 394.459546 99.421377 384.471866 127.384035 379.016999 127.384035 373.645842 127.384035 367.729947 127.384035 362.31756 109.650096 356.837705 91.6939826 351.044251 72.7081329 345.025906 91.5292247 339.283678 109.480345 333.535202 127.453932ZM247.068187 5.63919289C248.266359 4.52208452 249.343339 3.5198074 250.387835 2.54623809 254.97812 2.54623809 259.408481 2.54623809 264.023753 2.54623809 265.042012 3.45989544 266.136484 4.44095374 267.107265 5.31092529 267.107265 16.9038891 267.107265 28.0525058 267.107265 39.4420186 270.243251 39.4420186 273.174337 39.4420186 276.471495 39.4420186 277.378557 40.4892296 278.340593 41.6013454 279.393835 42.8170588 279.393835 46.6214681 279.393835 50.5157454 279.393835 54.7857205 278.576729 55.6382177 277.565967 56.694166 276.553955 57.7501142 273.360497 57.7501142 270.430661 57.7501142 267.257193 57.7501142 267.257193 75.0559328 267.257193 92.0946438 267.257193 109.18453 270.304472 110.320361 273.310521 109.39547 276.933772 109.972122 277.482257 110.612431 278.428051 111.71581 279.430067 112.884093 279.430067 116.603627 279.430067 120.37184 279.430067 124.724194 278.646695 125.431904 277.560969 126.41421 276.35905 127.498866 270.456898 127.34659 264.534757 127.998133 258.646349 126.945929 252.404362 125.830069 248.877314 122.382635 247.832818 116.114346 247.459249 113.870144 247.321815 111.563534 247.315568 109.284383 247.273089 93.5138083 247.293079 77.7432337 247.293079 61.9714109 247.293079 60.6520997 247.293079 59.3315403 247.293079 57.7987927 244.421965 57.7987927 241.898183 57.7987927 238.769693 57.7987927 238.093769 56.7952674 237.26292 55.5595833 236.016022 53.7073053 236.016022 50.739167 236.016022 46.8473861 236.016022 42.4089086 236.853118 41.7249138 237.997566 40.7900376 239.389394 39.6529586 241.63581 39.6529586 244.18333 39.6529586 247.068187 39.6529586 247.068187 28.2534605 247.068187 16.9975015 247.068187 5.63919289ZM214.049125 124.186234C212.743505 125.589173 211.741489 126.66634 210.954369 127.511348 206.140442 127.511348 201.830023 127.511348 197.273472 127.511348 196.338923 126.621406 195.283183 125.616632 194.088759 124.478305 194.088759 102.401997 194.088759 80.3231924 194.088759 57.9098794 191.340086 57.9098794 188.835045 57.9098794 186.346246 57.9098794 185.110593 56.7515816 184.052354 55.7580416 183.06533 54.8319026 183.06533 50.7067147 183.06533 46.8024522 183.06533 42.8769708 183.740004 41.5077329 184.938176 40.6415059 186.313762 39.5044268 188.626396 39.5044268 191.162672 39.5044268 193.972565 39.5044268 194.306154 33.8352579 193.806396 28.302139 195.002068 22.9138073 198.431663 7.44903327 210.488344-.210960122 226.341941 3.19278796 226.341941 8.84323445 226.341941 14.5535929 226.341941 20.246477 213.308233 23.3743805 213.308233 23.3743805 213.937929 39.227334 217.02144 40.0785831 220.259877 39.2260859 223.547041 39.7440747 224.557803 40.6402577 225.66102 41.6163233 226.524353 42.381449 226.524353 46.6738911 226.524353 50.4408554 226.524353 54.5473208 225.707248 55.4210369 224.711478 56.483226 223.645743 57.6215531 220.50351 57.6215531 217.421247 57.6215531 214.049125 57.6215531 214.049125 79.8800935 214.049125 101.942672 214.049125 124.186234ZM88.445664 83.1677622C88.5372061 56.6829325 107.185705 37.9654384 133.484261 37.9654384 159.23933 37.9654384 178.13521 57.3394677 178.13521 83.7444148 178.13521 109.148333 157.969943 129.316196 132.703388 129.184537 106.829627 129.049088 88.3547942 109.839817 88.445664 83.1677622ZM108.518593 83.4024173C108.442598 107.824029 128.360485 113.902596 142.076364 109.047231 153.534584 104.991941 160.115157 91.9698273 157.713816 78.227522 155.681048 66.5983614 149.209171 59.1929939 139.361425 57.2271328 121.714942 53.7048089 108.565039 64.863411 108.518593 83.4024173ZM.0211804686 92.5065385C.951981196 91.5317211 1.87028795 90.5693852 2.64866225 89.754333 8.50708455 89.754333 14.0306685 89.754333 19.5717439 89.754333 20.6387289 91.3919265 20.2039388 93.2055114 20.377605 94.904265 21.3109045 104.022116 26.1135864 109.077187 35.1504745 110.364046 45.2143669 111.796941 54.4249212 106.791796 57.0286645 98.472771 59.4774825 90.6517642 57.2185728 84.7666625 50.1707246 80.5977888 44.8008165 77.4212069 38.8299485 75.7062271 33.0502382 73.521937 29.1533691 72.0491014 25.2077736 70.6561484 21.4483382 68.8800085 5.40108373 61.2974014-1.91288601 47.1357124 1.11065461 29.8211567 3.91929895 13.733548 16.097171 2.54623809 32.7816179.418115431 39.1897748-.399433155 45.4592487-.0412095759 51.6125287 1.69748536 67.3124508 6.13471471 77.0502506 19.6710726 77.1289626 37.5772589 76.3518377 38.1851156 75.2023925 39.0825468 73.8455474 40.1434877 68.3869321 40.1434877 62.5959773 40.1434877 56.7200634 40.1434877 55.7980085 37.9030301 56.2265516 35.5851863 56.0278975 33.3447287 55.3257364 25.4288613 49.9120995 20.472395 40.7652644 19.4451546 32.5817144 18.5265046 25.2115218 22.8938366 22.7726989 30.1069867 20.0889943 38.0465692 22.6527568 44.9838746 29.9779711 49.0316762 35.7714248 52.2332215 42.1883275 53.9556902 48.3028762 56.3971025 51.7986888 57.7925519 55.3469762 59.0981333 58.714101 60.7619382 73.8417992 68.2384513 80.6185283 81.0521212 78.68821 98.2381158 77.0539988 112.78424 66.0892912 124.762887 50.996576 128.443728 43.4152353 130.292261 35.7551826 130.540646 28.1251155 128.938001 9.97762476 125.127351-.537299968 111.605971.0211804686 92.5065385Z" transform="translate(344.931)"/>
                <path d="M296.910439 87.630317C296.053353 88.4229023 295.070078 89.331567 293.998095 90.3226106 272.50347 90.3226106 251.072564 90.3226106 229.394278 90.3226106 229.148146 93.2233479 230.353814 95.4288568 231.641943 97.5594758 239.674316 110.843704 256.927238 113.986586 269.090117 104.059923 271.972476 101.708379 274.686166 100.799714 278.204468 100.971961 282.105085 101.16293 286.021945 101.015647 289.673932 101.015647 291.395601 101.954268 291.619243 103.443329 292.094014 104.62659 282.913445 124.30642 258.177884 133.442994 236.282203 125.42977 214.402764 117.422786 203.271886 93.7638037 209.864954 69.2810319 215.904539 46.8552373 237.522854 33.6970737 261.247653 38.0069901 284.201573 42.1783601 299.020671 62.4560614 296.910439 87.630317ZM275.98429 74.1900679C274.544984 62.9565759 263.871386 55.0394603 251.001348 55.5599455 239.773018 56.0142778 230.42503 64.2659018 229.922772 74.1900679 245.274113 74.1900679 260.622954 74.1900679 275.98429 74.1900679ZM193.818949 124.10921C193.041824 124.898051 192.016069 125.940269 191.220203 126.750329 186.402528 126.750329 182.087111 126.750329 177.176981 126.750329 176.518549 125.895335 175.615235 124.72206 174.317112 123.035788 174.317112 107.778209 174.319611 91.8803215 174.314613 75.982434 174.313364 73.5547515 174.244647 71.1270691 174.272133 68.6993866 174.415814 56.19651 165.676282 54.4890192 157.588936 55.8994466 149.840176 57.2512101 144.241628 63.4333752 144.057967 71.3392573 143.710635 86.3022686 143.868059 101.277762 143.819332 116.248262 143.811836 118.668455 143.818083 121.088649 143.818083 123.948197 142.848551 124.770738 141.724094 125.723088 140.520924 126.74284 136.30421 126.74284 131.988793 126.74284 127.633395 126.74284 126.197838 125.967729 125.150843 124.758256 124.173815 123.410237 124.173815 96.3275362 124.173815 69.2273608 124.173815 41.6716048 125.034649 40.8378301 126.09039 39.8155823 127.034934 38.9006768 131.78639 38.9006768 136.221749 38.9006768 140.579646 38.9006768 142.563688 40.3061115 144.219139 41.8376109 143.808088 45.3000228 149.242964 41.0125733 154.569144 38.3240242 160.83362 37.4740233 179.129789 34.9939179 193.173011 45.8604492 193.695258 64.1722894 194.253739 83.8483747 193.818949 103.55192 193.818949 124.10921ZM82.9024852 41.7439984C83.8182932 40.7941443 84.8378011 39.7356997 85.6636524 38.8769616 90.427603 38.8769616 94.7305261 38.8769616 99.3245587 38.8769616 100.227873 39.7169772 101.292359 40.7067727 102.51302 41.8426035 102.51302 55.4126619 102.51302 68.9976983 102.51302 82.5839828 102.51302 96.182749 102.51302 109.780267 102.51302 124.03432 101.669677 124.703337 100.515234 125.619491 99.1546407 126.699154 95.004144 126.699154 90.5762813 126.699154 85.6349163 126.699154 84.8615396 125.880357 83.8532763 124.811927 82.9024852 123.804658 82.9024852 96.5247464 82.9024852 69.4695049 82.9024852 41.7439984ZM92.7714717 21.7970611C86.7231411 21.8644621 82.0404013 17.3348684 81.8842267 11.2675346 81.7255533 5.09036214 86.4445255.110180678 92.5590742.00159025499 98.466223-.103255671 103.528779 4.99050888 103.555113 11.0665799 103.580005 16.9354554 98.7598313 21.7309083 92.7714717 21.7970611ZM21.2310024 54.4653041C35.6402974 54.4653041 49.7972142 54.4653041 64.4314007 54.4653041 65.2260171 55.4101656 66.1718106 56.5347629 67.1788246 57.7317539 67.1788246 61.790789 67.1788246 65.9634072 67.1788246 70.4880082 66.2780094 71.201959 65.2210196 72.0382301 63.6617722 73.2739142 50.0570888 73.2739142 35.7852274 73.2739142 21.1785277 73.2739142 21.1785277 90.1578527 21.1785277 106.813377 21.1785277 123.669856 20.052821 124.757008 18.9945818 125.778008 18.0425413 126.696658 12.8962753 126.696658 8.05361274 126.696658 2.69369982 126.696658 2.02152426 125.826686 1.12695605 124.672133 0 123.214275 0 84.0256143 0 44.3826209 0 4.33397368.853338117 3.63375268 1.88908819 2.78250361 3.17846584 1.7253072 23.1900568 1.7253072 43.5489801 1.7253072 64.463885 1.7253072 65.1410582 2.59652691 66.0481203 3.76356192 67.1725776 5.21018606 67.1725776 8.96716505 67.1725776 13.1372869 67.1725776 17.6519026 66.3729635 18.4182763 65.4046809 19.3456635 64.3152068 20.3891301 50.048343 20.3891301 35.7652371 20.3891301 21.2335012 20.3891301 21.2310024 31.7312126 21.2310024 42.8561142 21.2310024 54.4653041Z" transform="translate(0 .776)"/>
            </g>
            <g transform="translate(0 3)">
                <path d="M96,-19 L24,-19 C0.251589753,-19 -19,0.251589753 -19,24 L-19,96 C-19,119.74841 0.251589753,139 24,139 L96,139 C119.74841,139 139,119.74841 139,96 L139,24 C139,0.251589753 119.74841,-19 96,-19 Z M96,0 C109.12245,0 119.784849,10.5311745 119.996785,23.6031112 L120,24 L120,96 C120,109.12245 109.468825,119.784849 96.3968888,119.996785 L96,120 L24,120 C10.87755,120 0.215151,109.468825 0.003215265,96.3968888 L0,96 L0,24 C0,10.87755 10.5311745,0.215151 23.6031112,0.003215265 L24,0 L96,0 Z"/>
                <circle cx="81" cy="86.5" r="10"/>
                <path d="M81,14 C67.1928813,14 56,25.1928813 56,39 C56,52.8071187 67.1928813,64 81,64 C94.8071187,64 106,52.8071187 106,39 C106,25.1928813 94.8071187,14 81,14 Z M81,30 C85.9705627,30 90,34.0294373 90,39 C90,43.9705627 85.9705627,48 81,48 C76.0294373,48 72,43.9705627 72,39 C72,34.0294373 76.0294373,30 81,30 Z"/>
            </g>
        </g>
    </g>
</svg>
